<?xml version="1.0" encoding="UTF-8"?>
<svg id="Layer_1" data-name="Layer 1" xmlns="http://www.w3.org/2000/svg" viewBox="0 0 50 50">
  <defs>
    <style>
      .cls-1 {
        fill: #fff;
      }
    </style>
  </defs>
  <path class="cls-1" d="M16.88,29.54c.87-.77,1.44-1.77,1.71-3.01h8.62c-.4,3.55-1.83,6.43-4.29,8.64-2.47,2.2-5.5,3.31-9.11,3.31-2.63,0-5-.58-7.11-1.73-2.11-1.16-3.75-2.76-4.93-4.82-1.18-2.06-1.77-4.36-1.77-6.92s.59-4.87,1.77-6.92c1.18-2.06,2.83-3.66,4.93-4.82,2.11-1.15,4.48-1.73,7.11-1.73,3.55,0,6.55,1.06,8.99,3.19,2.44,2.13,3.89,4.92,4.33,8.36h-8.5c-.36-1.14-.98-2.05-1.85-2.75-.87-.69-1.85-1.04-2.93-1.04-1.49,0-2.69.52-3.6,1.57-.91,1.05-1.37,2.43-1.37,4.13s.46,3.07,1.38,4.11c.92,1.05,2.12,1.57,3.6,1.57,1.15,0,2.17-.38,3.04-1.15ZM47.49,22.54c1.67,1.61,2.51,3.68,2.51,6.23,0,2.91-.96,5.26-2.89,7.04-1.93,1.78-4.47,2.67-7.62,2.67s-5.65-.89-7.6-2.68c-1.95-1.79-2.93-4.11-2.93-6.95,0-1.56.27-3.12.8-4.69s1.36-3.3,2.49-5.17l3.96-6.59h8.37s-4.69,7.77-4.69,7.77c.47-.03.84-.04,1.11-.04,2.65,0,4.81.8,6.49,2.41ZM41.83,31.15c.6-.61.9-1.41.9-2.39s-.3-1.78-.9-2.41-1.39-.94-2.35-.94-1.74.31-2.35.94-.91,1.43-.91,2.41.3,1.78.91,2.39c.6.61,1.39.92,2.35.92s1.74-.31,2.35-.92h0Z"/>
</svg>