<?xml version="1.0" encoding="UTF-8"?>
<svg id="Layer_1" data-name="Layer 1" xmlns="http://www.w3.org/2000/svg" viewBox="0 0 50 50">
  <defs>
    <style>
      .cls-1 {
        fill: #7d4098;
      }
    </style>
  </defs>
  <path class="cls-1" d="M23.35,16.42c0-6.08-6.81-9.81-11.7-9.81-3.27,0-5.31,1.61-5.31,4.18v1.65h-1.38c-2.41,0-4.96,2.56-4.96,4.98v18.46c0,.95.77,1.72,1.72,1.72h4.49s.06,0,.07-.01c.92-.04,1.65-.8,1.65-1.72V14.02h3.75c2.05,0,3.73,1.68,3.73,3.73v18.1c0,.95.77,1.72,1.72,1.72h4.49c.95,0,1.72-.77,1.72-1.72.01-8.03,0-19.44,0-19.44h0ZM2.04,36.01c-.24,0-.43-.19-.43-.43v-18.15c0-1.52,1.86-3.39,3.36-3.39h1.38v21.55c0,.24-.19.43-.43.43h-3.88ZM21.76,35.59c0,.24-.19.42-.43.42h-3.89c-.24,0-.43-.19-.43-.43v-17.81c0-2.94-2.39-5.34-5.34-5.34h-3.73v-1.65c0-.97.48-2.57,3.72-2.57,6.26,0,10.09,4.79,10.09,8.2.01,0,.01,11.15.01,19.17h0ZM48.26,12.4h-4.49c-.95,0-1.72.77-1.72,1.72v21.83h-3.73c-2.05,0-3.73-1.68-3.73-3.73V14.13c0-.95-.77-1.72-1.72-1.72h-4.49c-.95,0-1.72.77-1.72,1.72v19.46c0,6.08,6.81,9.81,11.7,9.81,3.27,0,5.31-1.61,5.31-4.18v-1.65h1.38c2.41,0,4.96-2.56,4.96-4.98V14.13c-.01-.95-.79-1.72-1.74-1.72h0ZM42.05,39.23c0,.97-.48,2.57-3.72,2.57-6.26,0-10.09-4.79-10.09-8.2,0,0-.01-11.09,0-19.17,0-.24.19-.42.43-.42h3.89c.24,0,.43.19.43.43v17.82c0,2.94,2.39,5.34,5.34,5.34h3.73v1.63ZM48.39,32.59c0,1.52-1.86,3.39-3.36,3.39h-1.38V14.42c0-.24.19-.42.43-.42h3.89c.24,0,.43.19.43.43v18.15h-.01Z"/>
</svg>