<?xml version="1.0" encoding="UTF-8"?>
<svg id="Layer_1" data-name="Layer 1" xmlns="http://www.w3.org/2000/svg" viewBox="0 0 50 50">
  <defs>
    <style>
      .cls-1 {
        fill: #fed900;
      }
    </style>
  </defs>
  <g id="Group_10768" data-name="Group 10768">
    <g id="Group_10767" data-name="Group 10767">
      <path id="Path_5167" data-name="Path 5167" class="cls-1" d="M22.61,25.16c0,6.46-3.36,10.24-7.44,10.24-1.76.1-3.4-.91-4.11-2.53-1.07,1.64-2.92,2.6-4.88,2.53-2.35,0-5.03-1.28-5.03-6.04v-5.18c0-1.31-1.16-1.61-1.16-2.26v-.09c.02-.33.27-.59.59-.63l3.81-.57c.74-.09,1.19.03,1.19.74l-.06,9.73c-.03,1.58.53,2.59,1.61,2.59,2.17,0,3.27-3.24,3.27-5.95v-3.57c0-1.31-1.16-1.61-1.16-2.26v-.09c.02-.34.29-.6.63-.63l3.48-.63c.74-.12,1.22.09,1.22.8l-.09,9.64c-.03,1.67.45,2.68,1.64,2.68,2.08,0,4.2-3.24,4.2-6.34,0-2.56-2.71-2.71-2.71-5-.04-.98.72-1.81,1.7-1.85.08,0,.16,0,.24,0,1.91,0,3.07,1.7,3.07,4.64Z"/>
      <path id="Path_5168" data-name="Path 5168" class="cls-1" d="M25.11,34.59v-.12c0-.74,1.13-.98,1.13-2.26v-6.72c0-1.31-1.13-1.64-1.13-2.29v-.09c0-.27.24-.42.63-.63l3.72-1.84c.74-.36,1.22.06,1.22.59v10.98c0,1.28,1.25,1.52,1.25,2.26v.12c0,.3-.27.51-.68.51h-5.48c-.39,0-.65-.21-.65-.5ZM25.53,16.08c.04-1.47,1.26-2.64,2.74-2.6.07,0,.14,0,.21.01,1.44-.15,2.72.9,2.87,2.34s-.9,2.72-2.34,2.87c-.18.02-.35.02-.53,0-1.47.15-2.78-.92-2.93-2.39,0-.07-.01-.15-.01-.23Z"/>
      <path id="Path_5169" data-name="Path 5169" class="cls-1" d="M34.07,34.59v-.12c0-.74,1.16-.98,1.16-2.23v-14.64c0-1.34-1.16-1.64-1.16-2.26v-.12c0-.3.24-.45.59-.6l3.75-1.84c.77-.39,1.22.03,1.22.54v18.92c0,1.25,1.28,1.49,1.28,2.23v.12c0,.3-.3.51-.68.51h-5.48c-.41,0-.68-.21-.68-.51Z"/>
      <path id="Path_5170" data-name="Path 5170" class="cls-1" d="M42.99,34.59v-.12c0-.74,1.16-.98,1.16-2.23v-14.64c0-1.34-1.16-1.64-1.16-2.26v-.12c0-.3.24-.45.59-.6l3.75-1.84c.77-.39,1.22.03,1.22.54v18.92c0,1.25,1.28,1.49,1.28,2.23v.12c0,.3-.3.51-.68.51h-5.48c-.42,0-.68-.21-.68-.51Z"/>
    </g>
  </g>
  <g id="Group_10769" data-name="Group 10769">
    <path id="Path_5171" data-name="Path 5171" class="cls-1" d="M26.08,40.14h1.77c.24,0,.48.03.71.11.18.06.35.16.49.29.13.12.23.26.29.42.07.16.1.34.1.52,0,.16-.03.31-.09.45-.05.13-.13.24-.22.34-.08.09-.18.17-.28.23-.08.05-.18.09-.28.1.13.02.25.05.37.1.29.11.53.33.66.61.08.19.12.39.12.59,0,.24-.04.48-.15.7-.1.18-.24.34-.42.45-.19.12-.4.2-.62.24-.25.05-.51.07-.77.07h-1.68v-5.23ZM27.74,42.32c.12,0,.23-.02.35-.04.11-.03.22-.07.31-.14.09-.06.17-.15.23-.24.06-.11.09-.24.09-.36,0-.13-.02-.26-.09-.38-.06-.09-.13-.17-.23-.23-.1-.06-.2-.09-.31-.11-.11-.02-.23-.03-.35-.03h-.93v1.53h.93ZM27.72,44.71c.14,0,.28,0,.42-.02.14-.01.28-.05.4-.11.12-.06.23-.14.3-.25.15-.29.15-.63,0-.92-.07-.11-.17-.21-.29-.28-.12-.07-.25-.11-.39-.14-.13-.02-.27-.04-.41-.04h-.96v1.76h.91Z"/>
    <path id="Path_5172" data-name="Path 5172" class="cls-1" d="M33.8,40.14h.77l2.05,5.23h-.84l-.54-1.46h-2.15l-.54,1.46h-.79l2.05-5.23ZM35.01,43.27l-.85-2.3-.85,2.3h1.7Z"/>
    <path id="Path_5173" data-name="Path 5173" class="cls-1" d="M38.86,40.14h.76l2.85,4.08v-4.08h.74v5.23h-.75l-2.86-4.09v4.09h-.74v-5.23Z"/>
    <path id="Path_5174" data-name="Path 5174" class="cls-1" d="M45.97,40.14h.74v2.37l2.19-2.37h.86l-1.94,2.13,2.18,3.09h-.9l-1.79-2.56-.59.64v1.92h-.74v-5.23Z"/>
  </g>
</svg>